<svg width="68" height="68" viewBox="0 0 68 68" fill="none" xmlns="http://www.w3.org/2000/svg">
<g id="phone-call">
<path id="Oval 2" fill-rule="evenodd" clip-rule="evenodd" d="M34 66C51.6731 66 66 51.6731 66 34C66 16.3269 51.6731 2 34 2C16.3269 2 2 16.3269 2 34C2 51.6731 16.3269 66 34 66Z" stroke="url(#paint0_linear)" stroke-width="3"/>
<path id="Shape" d="M49.9968 43.7846C49.9522 42.5468 49.4366 41.3916 48.545 40.532C46.7993 38.8486 45.3367 37.8769 43.9421 37.4739C42.0205 36.9185 40.2405 37.4235 38.652 38.9749C38.6497 38.9772 38.6473 38.9796 38.6449 38.9819L36.9549 40.6593C35.8987 40.0639 33.845 38.7567 31.6261 36.5378L31.4616 36.3734C29.2424 34.1542 27.9352 32.1001 27.3404 31.0451L29.0179 29.355C29.0202 29.3526 29.0226 29.3503 29.025 29.3478C30.5763 27.7595 31.0813 25.9796 30.526 24.0577C30.1229 22.6632 29.1512 21.2005 27.4679 19.4549C26.6082 18.5634 25.4532 18.0478 24.2154 18.0032C22.9768 17.9585 21.7883 18.3896 20.8665 19.217L20.8307 19.2492C20.814 19.2642 20.7978 19.2796 20.7819 19.2954C18.947 21.1304 17.9851 23.6992 18.0002 26.7243C18.0259 31.8632 20.8502 37.7399 25.5551 42.4448C26.4423 43.332 27.4506 44.21 28.552 45.0545C29.0998 45.4745 29.8844 45.371 30.3045 44.8232C30.7246 44.2753 30.621 43.4907 30.0731 43.0706C29.0584 42.2925 28.1331 41.4873 27.3229 40.6772C23.0731 36.4274 20.5225 31.2068 20.5001 26.7118C20.4885 24.3821 21.1894 22.4375 22.527 21.0859L22.5366 21.0772C23.4452 20.2617 24.8207 20.3113 25.6684 21.1902C28.9045 24.5464 28.6702 26.1308 27.2402 27.5972L24.9231 29.9317C24.5597 30.2978 24.4585 30.8496 24.6684 31.3208C24.7272 31.453 26.1502 34.5975 29.6943 38.1416L29.8589 38.3059C33.4025 41.8496 36.5471 43.2727 36.6792 43.3315C37.1504 43.5414 37.7022 43.4402 38.0683 43.0768L40.4028 40.7596C41.8694 39.3295 43.4538 39.0953 46.8098 42.3315C47.6887 43.179 47.7383 44.5547 46.923 45.4631L46.9141 45.4729C45.5735 46.7997 43.6497 47.5 41.3453 47.5C41.3263 47.5 41.3073 47.5 41.2882 47.4999C39.4463 47.4907 37.3134 46.9857 35.1202 46.0397C34.4864 45.7662 33.7507 46.0585 33.4774 46.6924C33.2039 47.3264 33.4961 48.0619 34.13 48.3353C36.6652 49.4288 39.0693 49.9888 41.2758 49.9999C41.2992 49.9999 41.3225 50 41.3459 50C44.3405 50 46.8838 49.0388 48.7046 47.2181C48.7204 47.2022 48.7358 47.186 48.7507 47.1694L48.7832 47.1333C49.6105 46.2116 50.0415 45.0224 49.9968 43.7846Z" fill="url(#paint1_linear)"/>
</g>
<defs>
<linearGradient id="paint0_linear" x1="-30" y1="34" x2="34" y2="98" gradientUnits="userSpaceOnUse">
<stop stop-color="#FF8E00"/>
<stop offset="1" stop-color="#FFECB2"/>
</linearGradient>
<linearGradient id="paint1_linear" x1="2" y1="34" x2="34" y2="66" gradientUnits="userSpaceOnUse">
<stop stop-color="#FF8E00"/>
<stop offset="1" stop-color="#FFECB2"/>
</linearGradient>
</defs>
</svg>
