<svg width="68" height="68" viewBox="0 0 68 68" fill="none" xmlns="http://www.w3.org/2000/svg">
<g id="login">
<path id="Oval 2" fill-rule="evenodd" clip-rule="evenodd" d="M34 66C51.6731 66 66 51.6731 66 34C66 16.3269 51.6731 2 34 2C16.3269 2 2 16.3269 2 34C2 51.6731 16.3269 66 34 66Z" stroke="url(#paint0_linear)" stroke-width="3"/>
<path id="Oval" d="M39.5 40C40.3284 40 41 39.5523 41 39C41 38.4477 40.3284 38 39.5 38C38.6716 38 38 38.4477 38 39C38 39.5523 38.6716 40 39.5 40Z" fill="#D0021B"/>
<path id="Shape" fill-rule="evenodd" clip-rule="evenodd" d="M23 47.5H32.875C33.5654 47.5 34.125 48.0596 34.125 48.75C34.125 49.4404 33.5654 50 32.875 50H23C20.243 50 18 47.757 18 45V34.75C18 31.993 20.243 29.75 23 29.75H24.4977V25.3416C24.4977 21.2934 27.8622 18 31.9977 18C36.1332 18 39.4977 21.2934 39.4977 25.3416V29.75H41C43.757 29.75 46 31.993 46 34.75V37.25C46 37.9404 45.4404 38.5 44.75 38.5C44.0596 38.5 43.5 37.9404 43.5 37.25V34.75C43.5 33.3715 42.3785 32.25 41 32.25H23C21.6215 32.25 20.5 33.3715 20.5 34.75V45C20.5 46.3785 21.6215 47.5 23 47.5ZM31.9977 20.5C29.2407 20.5 26.9977 22.6719 26.9977 25.3416V29.75H36.9977V25.3416C36.9977 22.6719 34.7547 20.5 31.9977 20.5Z" fill="url(#paint1_linear)"/>
<path id="Shape_2" d="M49.4964 38.2362C48.9552 37.83 48.2024 37.9607 47.8152 38.528L41.8756 47.2248C41.7134 47.422 41.5101 47.4645 41.4012 47.4721C41.2895 47.4799 41.0744 47.465 40.8851 47.2788L37.0466 43.3522C36.5703 42.8649 35.8074 42.8748 35.3426 43.374C34.8778 43.8733 34.8871 44.673 35.3634 45.1602L39.2086 49.0938C39.2122 49.0974 39.2158 49.1011 39.2194 49.1047C39.7958 49.68 40.5653 50 41.357 50C41.425 50 41.4932 49.9977 41.5614 49.9929C42.4238 49.9326 43.2291 49.493 43.7706 48.7867C43.7845 48.7684 43.798 48.7498 43.8111 48.7307L49.7747 39.9986C50.1621 39.4313 50.0375 38.6423 49.4964 38.2362Z" fill="#D0021B"/>
<path id="Oval_2" d="M34 40C34.5523 40 35 39.5523 35 39C35 38.4477 34.5523 38 34 38C33.4477 38 33 38.4477 33 39C33 39.5523 33.4477 40 34 40Z" fill="#D0021B"/>
<path id="Oval_3" d="M25 40C25.5523 40 26 39.5523 26 39C26 38.4477 25.5523 38 25 38C24.4477 38 24 38.4477 24 39C24 39.5523 24.4477 40 25 40Z" fill="#D0021B"/>
<path id="Oval_4" d="M30 40C30.5523 40 31 39.5523 31 39C31 38.4477 30.5523 38 30 38C29.4477 38 29 38.4477 29 39C29 39.5523 29.4477 40 30 40Z" fill="#D0021B"/>
</g>
<defs>
<linearGradient id="paint0_linear" x1="-30" y1="34" x2="34" y2="98" gradientUnits="userSpaceOnUse">
<stop stop-color="#FF5253"/>
<stop offset="1" stop-color="#F48FB1"/>
</linearGradient>
<linearGradient id="paint1_linear" x1="4" y1="34" x2="35.7168" y2="61.7522" gradientUnits="userSpaceOnUse">
<stop stop-color="#FF5253"/>
<stop offset="1" stop-color="#F48FB1"/>
</linearGradient>
</defs>
</svg>
