<svg width="68" height="68" viewBox="0 0 68 68" fill="none" xmlns="http://www.w3.org/2000/svg">
<g id="donation">
<path id="Oval 2" fill-rule="evenodd" clip-rule="evenodd" d="M34 66C51.6731 66 66 51.6731 66 34C66 16.3269 51.6731 2 34 2C16.3269 2 2 16.3269 2 34C2 51.6731 16.3269 66 34 66Z" stroke="url(#paint0_linear)" stroke-width="3"/>
<path id="Shape" d="M49.8719 38.6736C49.8689 38.6248 49.8638 38.5757 49.8548 38.5263L47.4798 25.4638C47.473 25.4265 47.4646 25.3895 47.4544 25.3529C47.1753 24.3484 46.6003 23.4698 45.7915 22.812C45.7113 22.7467 45.6233 22.6918 45.5296 22.6482L38.4477 19.3575C36.5364 18.4694 34.4122 18 32.3048 18H19.25C18.5596 18 18 18.5596 18 19.25C18 19.9404 18.5596 20.5 19.25 20.5H32.3048C34.0508 20.5 35.8108 20.8889 37.3943 21.6247L44.3204 24.8431C44.6564 25.1486 44.9004 25.5359 45.0312 25.9727L46.2277 32.5529C45.2248 31.7723 44.0659 31.1833 42.8065 30.8407C42.3948 28.7321 42.3362 28.5561 42.3107 28.4797C42.0925 27.8247 41.3847 27.4709 40.7296 27.6891C40.0866 27.9035 39.7337 28.5899 39.9277 29.2346C39.9617 29.3681 40.0683 29.8856 40.1911 30.5009C37.7297 30.5156 35.4131 31.4456 33.6496 33.0706C33.4738 32.2264 33.3038 31.4391 33.1574 30.7822C33.5837 30.2664 34.4959 29.3374 35.8931 28.7905C36.5359 28.5389 36.8531 27.8138 36.6015 27.1709C36.3499 26.5281 35.6249 26.2107 34.9819 26.4625C32.1787 27.5596 30.805 29.7521 30.7479 29.8449C30.5763 30.1238 30.5209 30.4589 30.5938 30.7782C31.4641 34.5916 32.4375 39.7199 32.4375 40.8751C32.4375 41.5526 31.8507 42.1251 31.1562 42.1251C30.7343 42.1251 30.3491 41.918 30.1159 41.5685L24.7492 30.4866C24.7191 30.4244 24.6839 30.3648 24.644 30.3085C23.9801 29.3717 22.8982 28.8125 21.75 28.8125H19.25C18.5596 28.8125 18 29.3721 18 30.0625C18 30.7529 18.5596 31.3125 19.25 31.3125H21.75C22.0609 31.3125 22.3554 31.4514 22.5533 31.6878L27.8971 42.7224C27.9149 42.7592 27.9344 42.7951 27.9558 42.8299C28.6433 43.954 29.8398 44.625 31.1562 44.625C31.281 44.625 31.4042 44.6186 31.5258 44.6069C33.1697 47.9046 36.5225 50 40.25 50C41.8837 50 43.5006 49.5876 44.9257 48.8075C45.5312 48.4761 45.7534 47.7164 45.4219 47.1108C45.0905 46.5053 44.3309 46.2831 43.7253 46.6146C42.6671 47.1939 41.4654 47.5 40.25 47.5C37.5034 47.5 35.0304 45.9701 33.7959 43.5564C34.4996 42.875 34.9375 41.925 34.9375 40.875C34.9375 40.0394 34.6406 38.1747 34.2631 36.1607C35.6189 34.1784 37.8435 33 40.25 33C44.2477 33 47.5 36.2523 47.5 40.25C47.5 41.0164 47.3813 41.7705 47.1472 42.4914C46.934 43.1481 47.2934 43.8531 47.95 44.0664C48.0783 44.108 48.2084 44.1278 48.3363 44.1278C48.8633 44.1278 49.3534 43.7918 49.525 43.2635C49.8402 42.2929 50 41.279 50 40.25C50 39.7134 49.9558 39.187 49.8719 38.6736Z" fill="url(#paint1_linear)"/>
<path id="Shape_2" d="M39.8889 44C40.5026 44 41 43.449 41 42.7692V37.2307C41 36.7634 40.7611 36.3364 40.3832 36.1284C40.0054 35.9207 39.5539 35.9677 39.2176 36.25L37.4399 37.743C36.9509 38.1536 36.855 38.9257 37.2258 39.4673C37.5953 40.0072 38.289 40.1146 38.7779 39.7084V42.7693C38.7778 43.449 39.2752 44 39.8889 44Z" fill="url(#paint2_linear)"/>
</g>
<defs>
<linearGradient id="paint0_linear" x1="-30" y1="34" x2="34" y2="98" gradientUnits="userSpaceOnUse">
<stop stop-color="#0197A8"/>
<stop offset="0.997584" stop-color="#CDFF90"/>
</linearGradient>
<linearGradient id="paint1_linear" x1="2.03866" y1="33.9613" x2="33.9613" y2="65.884" gradientUnits="userSpaceOnUse">
<stop stop-color="#0197A8"/>
<stop offset="1" stop-color="#CDFF90"/>
</linearGradient>
<linearGradient id="paint2_linear" x1="35.0048" y1="39.9903" x2="41.3894" y2="43.1826" gradientUnits="userSpaceOnUse">
<stop stop-color="#0197A8"/>
<stop offset="1" stop-color="#CDFF90"/>
</linearGradient>
</defs>
</svg>
