<svg width="68" height="68" viewBox="0 0 68 68" fill="none" xmlns="http://www.w3.org/2000/svg">
<g id="shield">
<path id="Oval 2" fill-rule="evenodd" clip-rule="evenodd" d="M34 66C51.6731 66 66 51.6731 66 34C66 16.3269 51.6731 2 34 2C16.3269 2 2 16.3269 2 34C2 51.6731 16.3269 66 34 66Z" stroke="url(#paint0_linear)" stroke-width="3"/>
<path id="Shape" d="M49.1509 22.5067L34.5081 16.1207C34.1375 15.9591 33.7143 15.9598 33.3442 16.1228L18.8442 22.5088C18.3306 22.7351 18 23.2365 18 23.7895V34.8772C18 39.0675 19.6855 43.351 22.6244 46.6293C24.1026 48.2783 25.8067 49.5831 27.6895 50.5076C29.7062 51.4979 31.8293 52 34 52C37.0394 52 39.9976 51.0335 42.5549 49.205C43.1929 48.7489 43.3337 47.871 42.8693 47.2443C42.4051 46.6176 41.5115 46.4793 40.8737 46.9354C38.8081 48.4123 36.4312 49.193 34.0001 49.193C27.1216 49.193 20.8573 42.3696 20.8573 34.8772V24.6984L33.9315 18.9404L47.1429 24.7021V34.8772C47.1429 37.4616 46.3872 40.0772 44.9574 42.4408C44.5543 43.1072 44.7774 43.9684 45.4557 44.3644C46.134 44.7605 47.0105 44.5413 47.4136 43.8749C49.1057 41.0775 50 37.9662 50 34.8772V23.7895C49.9999 23.2346 49.6672 22.7318 49.1509 22.5067Z" fill="url(#paint1_linear)"/>
<path id="Shape_2" d="M40.3782 27.572L33.2508 36.9936C33.0561 37.2072 32.8123 37.2534 32.6815 37.2615C32.5472 37.27 32.2896 37.2538 32.0623 37.0524L27.4559 32.7983C26.8843 32.2704 25.9688 32.2809 25.4111 32.8219C24.8534 33.3628 24.8645 34.2291 25.4361 34.757L30.0504 39.0184C30.0547 39.0223 30.059 39.0262 30.0634 39.0302C30.7552 39.6534 31.6785 40 32.6286 40C32.7102 40.0001 32.7922 39.9975 32.8739 39.9923C33.9088 39.9271 34.875 39.4507 35.5246 38.6856C35.5415 38.6659 35.5577 38.6456 35.5733 38.625L42.7297 29.1651C43.1945 28.5506 43.0449 27.6958 42.3956 27.2559C41.7464 26.8159 40.843 26.9574 40.3782 27.572Z" fill="url(#paint2_linear)"/>
</g>
<defs>
<linearGradient id="paint0_linear" x1="98" y1="34" x2="34" y2="-30" gradientUnits="userSpaceOnUse">
<stop stop-color="#24C7DB"/>
<stop offset="1" stop-color="#0387D1"/>
</linearGradient>
<linearGradient id="paint1_linear" x1="66" y1="34" x2="30.2483" y2="2.22069" gradientUnits="userSpaceOnUse">
<stop stop-color="#24C7DB"/>
<stop offset="1" stop-color="#0387D1"/>
</linearGradient>
<linearGradient id="paint2_linear" x1="52" y1="33.5" x2="39.6592" y2="16.4128" gradientUnits="userSpaceOnUse">
<stop stop-color="#24C7DB"/>
<stop offset="1" stop-color="#0387D1"/>
</linearGradient>
</defs>
</svg>
